<svg xmlns="http://www.w3.org/2000/svg" xmlns:xlink="http://www.w3.org/1999/xlink" width="1270" height="537.62"><rect width="1270" height="537.62" rx="5" ry="5" class="a"/><svg y="0%" x="0%"><circle cx="20" cy="20" r="6" fill="#ff5f58"/><circle cx="40" cy="20" r="6" fill="#ffbd2e"/><circle cx="60" cy="20" r="6" fill="#18c132"/></svg><svg height="477.62" viewBox="0 0 123 47.762" width="1230" x="15" xmlns="http://www.w3.org/2000/svg" xmlns:xlink="http://www.w3.org/1999/xlink" y="50"><style>@keyframes p{0%{transform:translateX(0)}2.87%{transform:translateX(-123px)}15.16%{transform:translateX(-246px)}15.33%{transform:translateX(-369px)}15.51%{transform:translateX(-492px)}15.68%{transform:translateX(-615px)}15.85%{transform:translateX(-738px)}16.03%{transform:translateX(-861px)}16.2%{transform:translateX(-984px)}16.37%{transform:translateX(-1107px)}16.55%{transform:translateX(-1230px)}16.72%{transform:translateX(-1353px)}16.9%{transform:translateX(-1476px)}17.07%{transform:translateX(-1599px)}17.24%{transform:translateX(-1722px)}17.42%{transform:translateX(-1845px)}17.59%{transform:translateX(-1968px)}17.76%{transform:translateX(-2091px)}17.94%{transform:translateX(-2214px)}18.11%{transform:translateX(-2337px)}18.29%{transform:translateX(-2460px)}18.46%{transform:translateX(-2583px)}27.21%{transform:translateX(-2706px)}27.54%{transform:translateX(-2952px)}27.88%{transform:translateX(-3198px)}28.4%{transform:translateX(-3813px)}28.92%{transform:translateX(-4182px)}28.98%{transform:translateX(-4428px)}29.09%{transform:translateX(-4674px)}29.27%{transform:translateX(-4920px)}29.28%{transform:translateX(-5043px)}29.62%{transform:translateX(-5412px)}29.96%{transform:translateX(-5535px)}30.14%{transform:translateX(-5781px)}30.31%{transform:translateX(-5904px)}30.48%{transform:translateX(-6027px)}30.66%{transform:translateX(-6273px)}30.83%{transform:translateX(-6396px)}31%{transform:translateX(-6642px)}31.18%{transform:translateX(-6765px)}31.35%{transform:translateX(-6888px)}31.53%{transform:translateX(-7134px)}31.7%{transform:translateX(-7380px)}31.87%{transform:translateX(-7626px)}32.05%{transform:translateX(-7872px)}32.22%{transform:translateX(-8118px)}32.4%{transform:translateX(-8364px)}32.57%{transform:translateX(-8610px)}32.74%{transform:translateX(-8856px)}32.98%{transform:translateX(-9102px)}33.08%{transform:translateX(-9225px)}33.26%{transform:translateX(-9348px)}33.27%{transform:translateX(-9471px)}33.44%{transform:translateX(-9717px)}33.61%{transform:translateX(-9963px)}33.62%{transform:translateX(-10209px)}33.96%{transform:translateX(-10455px)}33.98%{transform:translateX(-10824px)}34.04%{transform:translateX(-11070px)}34.05%{transform:translateX(-11193px)}34.06%{transform:translateX(-11562px)}34.07%{transform:translateX(-11685px)}34.08%{transform:translateX(-11808px)}34.1%{transform:translateX(-11931px)}to{transform:translateX(-12054px)}}.a{fill:#282d35}.f{fill:#a8cc8c;font-weight:700;white-space:pre}.g{fill:#b9c0cb}.g,.h,.i,.j{white-space:pre}.h{fill:#71bef2;font-weight:700}.i,.j{fill:#a8cc8c}.j{fill:#b9c0cb;font-weight:700}.k{fill:#6f7783}.k,.l,.m{white-space:pre}.l{fill:#b9c0cb;font-weight:700;text-decoration:underline}.m{fill:#66c2cd}</style><g font-family="Monaco,Consolas,Menlo,'Bitstream Vera Sans Mono','Powerline Symbols',monospace" font-size="1.67"><defs><symbol id="1"><text y="1.67" class="f">rluvaton@DESKTOP-HEFABQ7</text><text x="24.048" y="1.67" class="g">:</text><text x="25.05" y="1.67" class="h">~/demo/playground</text><text x="42.084" y="1.67" class="g">$</text></symbol><symbol id="2"><text y="1.67" class="f">rluvaton@DESKTOP-HEFABQ7</text><text x="24.048" y="1.67" class="g">:</text><text x="25.05" y="1.67" class="h">~/demo/playground</text><text x="42.084" y="1.67" class="g">$</text><text x="44.088" y="1.67" class="g">bulk-npm-publish</text></symbol><symbol id="3"><text y="1.67" class="f">rluvaton@DESKTOP-HEFABQ7</text><text x="24.048" y="1.67" class="g">:</text><text x="25.05" y="1.67" class="h">~/demo/playground</text><text x="42.084" y="1.67" class="g">$</text><text x="44.088" y="1.67" class="g">bulk-npm-publish</text><text x="61.122" y="1.67" class="g">-i</text></symbol><symbol id="4"><text y="1.67" class="i">✔</text><text x="2.004" y="1.67" class="j">What&apos;s</text><text x="9.018" y="1.67" class="j">the</text><text x="13.026" y="1.67" class="j">storage</text><text x="21.042" y="1.67" class="j">path</text><text x="26.052" y="1.67" class="j">to</text><text x="29.058" y="1.67" class="j">publish?</text><text x="38.076" y="1.67" class="k">…</text><text x="40.08" y="1.67" class="g">../storage</text></symbol><symbol id="5"><text y="1.67" class="i">✔</text><text x="2.004" y="1.67" class="j">Where</text><text x="8.016" y="1.67" class="j">the</text><text x="12.024" y="1.67" class="j">publish</text><text x="20.04" y="1.67" class="j">script</text><text x="27.054" y="1.67" class="j">will</text><text x="32.064" y="1.67" class="j">be</text><text x="35.07" y="1.67" class="j">created</text><text x="43.086" y="1.67" class="k">…</text><text x="45.09" y="1.67" class="g">./publish.sh</text></symbol><symbol id="6"><text y="1.67" class="i">✔</text><text x="2.004" y="1.67" class="j">What</text><text x="7.014" y="1.67" class="j">is</text><text x="10.02" y="1.67" class="j">the</text><text x="14.028" y="1.67" class="j">registry</text><text x="23.046" y="1.67" class="j">url</text><text x="27.054" y="1.67" class="j">you</text><text x="31.062" y="1.67" class="j">want</text><text x="36.072" y="1.67" class="j">to</text><text x="39.078" y="1.67" class="j">publish</text><text x="47.094" y="1.67" class="j">to</text><text x="50.1" y="1.67" class="k">…</text><text x="52.104" y="1.67" class="g">http://localhost:4873</text></symbol><symbol id="7"><text y="1.67" class="i">✔</text><text x="2.004" y="1.67" class="j">Should</text><text x="9.018" y="1.67" class="j">publish</text><text x="17.034" y="1.67" class="j">only</text><text x="22.044" y="1.67" class="j">new</text><text x="26.052" y="1.67" class="j">packages</text><text x="35.07" y="1.67" class="k">…</text><text x="37.074" y="1.67" class="g">no</text></symbol><symbol id="8"><text y="1.67" class="i">info</text><text x="4.008" y="1.67" class="g">:</text><text x="6.012" y="1.67" class="g">User</text><text x="11.022" y="1.67" class="g">configuration</text><text x="25.05" y="1.67" class="g">loaded</text></symbol><symbol id="9"><text y="1.67" class="i">info</text><text x="4.008" y="1.67" class="g">:</text><text x="6.012" y="1.67" class="l">Packages</text><text x="15.03" y="1.67" class="l">scanning</text><text x="24.048" y="1.67" class="l">🗃️</text></symbol><symbol id="10"><text y="1.67" class="m">verbose</text><text x="7.014" y="1.67" class="g">:</text><text x="9.018" y="1.67" class="g">Scanning</text><text x="18.036" y="1.67" class="g">for</text><text x="22.044" y="1.67" class="g">packages</text><text x="31.062" y="1.67" class="g">in</text><text x="34.068" y="1.67" class="g">the</text><text x="38.076" y="1.67" class="g">provided</text><text x="47.094" y="1.67" class="g">storage</text><text x="55.11" y="1.67" class="g">path</text><text x="60.12" y="1.67" class="g">(../storage)</text></symbol><symbol id="11"><text y="1.67" class="m">verbose</text><text x="7.014" y="1.67" class="g">:</text><text x="9.018" y="1.67" class="g">Scan</text><text x="14.028" y="1.67" class="g">complete,</text><text x="24.048" y="1.67" class="g">found</text><text x="30.06" y="1.67" class="g">3</text><text x="32.064" y="1.67" class="g">packages</text></symbol><symbol id="12"><text y="1.67" class="i">info</text><text x="4.008" y="1.67" class="g">:</text><text x="6.012" y="1.67" class="l">Creating</text><text x="15.03" y="1.67" class="l">Script</text><text x="22.044" y="1.67" class="l">✏️</text></symbol><symbol id="13"><text y="1.67" class="m">verbose</text><text x="7.014" y="1.67" class="g">:</text><text x="9.018" y="1.67" class="g">Creating</text><text x="18.036" y="1.67" class="g">publish</text><text x="26.052" y="1.67" class="g">script</text><text x="33.066" y="1.67" class="g">with</text><text x="38.076" y="1.67" class="g">this</text><text x="43.086" y="1.67" class="g">options</text><text x="51.102" y="1.67" class="g">{&quot;options&quot;:{&quot;registry&quot;:&quot;http://localhost:4873&quot;}}</text></symbol><symbol id="14"><text y="1.67" class="m">verbose</text><text x="7.014" y="1.67" class="g">:</text><text x="9.018" y="1.67" class="g">Script</text><text x="16.032" y="1.67" class="g">creating</text><text x="25.05" y="1.67" class="g">finished</text></symbol><symbol id="15"><text y="1.67" class="i">info</text><text x="4.008" y="1.67" class="g">:</text><text x="6.012" y="1.67" class="l">Writing</text><text x="14.028" y="1.67" class="l">script</text><text x="21.042" y="1.67" class="l">file</text><text x="26.052" y="1.67" class="l">📝</text></symbol><symbol id="16"><text y="1.67" class="m">verbose</text><text x="7.014" y="1.67" class="g">:</text><text x="9.018" y="1.67" class="g">Writing</text><text x="17.034" y="1.67" class="g">script</text><text x="24.048" y="1.67" class="g">to</text><text x="27.054" y="1.67" class="g">file</text><text x="32.064" y="1.67" class="g">at</text><text x="35.07" y="1.67" class="g">path</text><text x="40.08" y="1.67" class="g">(./publish.sh)</text></symbol><symbol id="17"><text y="1.67" class="m">verbose</text><text x="7.014" y="1.67" class="g">:</text><text x="9.018" y="1.67" class="g">Finish</text><text x="16.032" y="1.67" class="g">writing</text><text x="24.048" y="1.67" class="g">script</text></symbol><symbol id="18"><text y="1.67" class="i">info</text><text x="4.008" y="1.67" class="g">:</text><text x="6.012" y="1.67" class="l">🔥</text><text x="9.018" y="1.67" class="l">Finish!</text><text x="17.034" y="1.67" class="l">🔥</text></symbol><symbol id="a"><path fill="transparent" d="M0 0h123v22H0z"/></symbol><symbol id="b"><path fill="#6f7683" d="M0 0h1.102v2.171H0z"/></symbol></defs><path class="a" d="M0 0h123v47.762H0z"/><g style="animation-duration:17.260922s;animation-iteration-count:infinite;animation-name:p;animation-timing-function:steps(1,end)"><svg width="12177"><svg><use xlink:href="#a"/><use xlink:href="#b" x="-.004"/></svg><svg x="123"><use xlink:href="#a"/><use xlink:href="#b" x="43.996"/><use xlink:href="#1"/></svg><svg x="246"><use xlink:href="#a"/><use xlink:href="#b" x="44.996"/><text y="1.67" class="f">rluvaton@DESKTOP-HEFABQ7</text><text x="24.048" y="1.67" class="g">:</text><text x="25.05" y="1.67" class="h">~/demo/playground</text><text x="42.084" y="1.67" class="g">$</text><text x="44.088" y="1.67" class="g">b</text></svg><svg x="369"><use xlink:href="#a"/><use xlink:href="#b" x="45.996"/><text y="1.67" class="f">rluvaton@DESKTOP-HEFABQ7</text><text x="24.048" y="1.67" class="g">:</text><text x="25.05" y="1.67" class="h">~/demo/playground</text><text x="42.084" y="1.67" class="g">$</text><text x="44.088" y="1.67" class="g">bu</text></svg><svg x="492"><use xlink:href="#a"/><use xlink:href="#b" x="46.996"/><text y="1.67" class="f">rluvaton@DESKTOP-HEFABQ7</text><text x="24.048" y="1.67" class="g">:</text><text x="25.05" y="1.67" class="h">~/demo/playground</text><text x="42.084" y="1.67" class="g">$</text><text x="44.088" y="1.67" class="g">bul</text></svg><svg x="615"><use xlink:href="#a"/><use xlink:href="#b" x="47.996"/><text y="1.67" class="f">rluvaton@DESKTOP-HEFABQ7</text><text x="24.048" y="1.67" class="g">:</text><text x="25.05" y="1.67" class="h">~/demo/playground</text><text x="42.084" y="1.67" class="g">$</text><text x="44.088" y="1.67" class="g">bulk</text></svg><svg x="738"><use xlink:href="#a"/><use xlink:href="#b" x="48.996"/><text y="1.67" class="f">rluvaton@DESKTOP-HEFABQ7</text><text x="24.048" y="1.67" class="g">:</text><text x="25.05" y="1.67" class="h">~/demo/playground</text><text x="42.084" y="1.67" class="g">$</text><text x="44.088" y="1.67" class="g">bulk-</text></svg><svg x="861"><use xlink:href="#a"/><use xlink:href="#b" x="49.996"/><text y="1.67" class="f">rluvaton@DESKTOP-HEFABQ7</text><text x="24.048" y="1.67" class="g">:</text><text x="25.05" y="1.67" class="h">~/demo/playground</text><text x="42.084" y="1.67" class="g">$</text><text x="44.088" y="1.67" class="g">bulk-n</text></svg><svg x="984"><use xlink:href="#a"/><use xlink:href="#b" x="50.996"/><text y="1.67" class="f">rluvaton@DESKTOP-HEFABQ7</text><text x="24.048" y="1.67" class="g">:</text><text x="25.05" y="1.67" class="h">~/demo/playground</text><text x="42.084" y="1.67" class="g">$</text><text x="44.088" y="1.67" class="g">bulk-np</text></svg><svg x="1107"><use xlink:href="#a"/><use xlink:href="#b" x="51.996"/><text y="1.67" class="f">rluvaton@DESKTOP-HEFABQ7</text><text x="24.048" y="1.67" class="g">:</text><text x="25.05" y="1.67" class="h">~/demo/playground</text><text x="42.084" y="1.67" class="g">$</text><text x="44.088" y="1.67" class="g">bulk-npm</text></svg><svg x="1230"><use xlink:href="#a"/><use xlink:href="#b" x="52.996"/><text y="1.67" class="f">rluvaton@DESKTOP-HEFABQ7</text><text x="24.048" y="1.67" class="g">:</text><text x="25.05" y="1.67" class="h">~/demo/playground</text><text x="42.084" y="1.67" class="g">$</text><text x="44.088" y="1.67" class="g">bulk-npm-</text></svg><svg x="1353"><use xlink:href="#a"/><use xlink:href="#b" x="53.996"/><text y="1.67" class="f">rluvaton@DESKTOP-HEFABQ7</text><text x="24.048" y="1.67" class="g">:</text><text x="25.05" y="1.67" class="h">~/demo/playground</text><text x="42.084" y="1.67" class="g">$</text><text x="44.088" y="1.67" class="g">bulk-npm-p</text></svg><svg x="1476"><use xlink:href="#a"/><use xlink:href="#b" x="54.996"/><text y="1.67" class="f">rluvaton@DESKTOP-HEFABQ7</text><text x="24.048" y="1.67" class="g">:</text><text x="25.05" y="1.67" class="h">~/demo/playground</text><text x="42.084" y="1.67" class="g">$</text><text x="44.088" y="1.67" class="g">bulk-npm-pu</text></svg><svg x="1599"><use xlink:href="#a"/><use xlink:href="#b" x="55.996"/><text y="1.67" class="f">rluvaton@DESKTOP-HEFABQ7</text><text x="24.048" y="1.67" class="g">:</text><text x="25.05" y="1.67" class="h">~/demo/playground</text><text x="42.084" y="1.67" class="g">$</text><text x="44.088" y="1.67" class="g">bulk-npm-pub</text></svg><svg x="1722"><use xlink:href="#a"/><use xlink:href="#b" x="56.996"/><text y="1.67" class="f">rluvaton@DESKTOP-HEFABQ7</text><text x="24.048" y="1.67" class="g">:</text><text x="25.05" y="1.67" class="h">~/demo/playground</text><text x="42.084" y="1.67" class="g">$</text><text x="44.088" y="1.67" class="g">bulk-npm-publ</text></svg><svg x="1845"><use xlink:href="#a"/><use xlink:href="#b" x="57.996"/><text y="1.67" class="f">rluvaton@DESKTOP-HEFABQ7</text><text x="24.048" y="1.67" class="g">:</text><text x="25.05" y="1.67" class="h">~/demo/playground</text><text x="42.084" y="1.67" class="g">$</text><text x="44.088" y="1.67" class="g">bulk-npm-publi</text></svg><svg x="1968"><use xlink:href="#a"/><use xlink:href="#b" x="58.996"/><text y="1.67" class="f">rluvaton@DESKTOP-HEFABQ7</text><text x="24.048" y="1.67" class="g">:</text><text x="25.05" y="1.67" class="h">~/demo/playground</text><text x="42.084" y="1.67" class="g">$</text><text x="44.088" y="1.67" class="g">bulk-npm-publis</text></svg><svg x="2091"><use xlink:href="#a"/><use xlink:href="#b" x="59.996"/><use xlink:href="#2"/></svg><svg x="2214"><use xlink:href="#a"/><use xlink:href="#b" x="60.996"/><use xlink:href="#2"/></svg><svg x="2337"><use xlink:href="#a"/><use xlink:href="#b" x="61.996"/><text y="1.67" class="f">rluvaton@DESKTOP-HEFABQ7</text><text x="24.048" y="1.67" class="g">:</text><text x="25.05" y="1.67" class="h">~/demo/playground</text><text x="42.084" y="1.67" class="g">$</text><text x="44.088" y="1.67" class="g">bulk-npm-publish</text><text x="61.122" y="1.67" class="g">-</text></svg><svg x="2460"><use xlink:href="#a"/><use xlink:href="#b" x="62.996"/><use xlink:href="#3"/></svg><svg x="2583"><use xlink:href="#a"/><use xlink:href="#b" x="-.004" y="2.146"/><use xlink:href="#3"/></svg><svg x="2706"><use xlink:href="#a"/><use xlink:href="#b" x="39.996" y="2.146"/><use xlink:href="#3"/><text y="3.841" class="m">?</text><text x="2.004" y="3.841" class="j">What&apos;s</text><text x="9.018" y="3.841" class="j">the</text><text x="13.026" y="3.841" class="j">storage</text><text x="21.042" y="3.841" class="j">path</text><text x="26.052" y="3.841" class="j">to</text><text x="29.058" y="3.841" class="j">publish?</text><text x="38.076" y="3.841" class="k">›</text></svg><svg x="2829"><use xlink:href="#a"/><use xlink:href="#b" x="-.004" y="2.146"/><use xlink:href="#3"/></svg><svg x="2952"><use xlink:href="#a"/><use xlink:href="#b" x="40.996" y="2.146"/><use xlink:href="#3"/><text y="3.841" class="m">?</text><text x="2.004" y="3.841" class="j">What&apos;s</text><text x="9.018" y="3.841" class="j">the</text><text x="13.026" y="3.841" class="j">storage</text><text x="21.042" y="3.841" class="j">path</text><text x="26.052" y="3.841" class="j">to</text><text x="29.058" y="3.841" class="j">publish?</text><text x="38.076" y="3.841" class="k">›</text><text x="40.08" y="3.841" class="g">.</text></svg><svg x="3075"><use xlink:href="#a"/><use xlink:href="#b" x="-.004" y="2.146"/><use xlink:href="#3"/></svg><svg x="3198"><use xlink:href="#a"/><use xlink:href="#b" x="41.996" y="2.146"/><use xlink:href="#3"/><text y="3.841" class="m">?</text><text x="2.004" y="3.841" class="j">What&apos;s</text><text x="9.018" y="3.841" class="j">the</text><text x="13.026" y="3.841" class="j">storage</text><text x="21.042" y="3.841" class="j">path</text><text x="26.052" y="3.841" class="j">to</text><text x="29.058" y="3.841" class="j">publish?</text><text x="38.076" y="3.841" class="k">›</text><text x="40.08" y="3.841" class="g">..</text></svg><svg x="3321"><use xlink:href="#a"/><use xlink:href="#b" x="-.004" y="2.146"/><use xlink:href="#3"/></svg><svg x="3444"><use xlink:href="#a"/><use xlink:href="#b" x="42.996" y="2.146"/><use xlink:href="#3"/><text y="3.841" class="m">?</text><text x="2.004" y="3.841" class="j">What&apos;s</text><text x="9.018" y="3.841" class="j">the</text><text x="13.026" y="3.841" class="j">storage</text><text x="21.042" y="3.841" class="j">path</text><text x="26.052" y="3.841" class="j">to</text><text x="29.058" y="3.841" class="j">publish?</text><text x="38.076" y="3.841" class="k">›</text><text x="40.08" y="3.841" class="g">../</text></svg><svg x="3567"><use xlink:href="#a"/><use xlink:href="#b" x="43.996" y="2.146"/><use xlink:href="#3"/><text y="3.841" class="m">?</text><text x="2.004" y="3.841" class="j">What&apos;s</text><text x="9.018" y="3.841" class="j">the</text><text x="13.026" y="3.841" class="j">storage</text><text x="21.042" y="3.841" class="j">path</text><text x="26.052" y="3.841" class="j">to</text><text x="29.058" y="3.841" class="j">publish?</text><text x="38.076" y="3.841" class="k">›</text><text x="40.08" y="3.841" class="g">../s</text></svg><svg x="3690"><use xlink:href="#a"/><use xlink:href="#b" x="-.004" y="2.146"/><use xlink:href="#3"/></svg><svg x="3813"><use xlink:href="#a"/><use xlink:href="#b" x="44.996" y="2.146"/><use xlink:href="#3"/><text y="3.841" class="m">?</text><text x="2.004" y="3.841" class="j">What&apos;s</text><text x="9.018" y="3.841" class="j">the</text><text x="13.026" y="3.841" class="j">storage</text><text x="21.042" y="3.841" class="j">path</text><text x="26.052" y="3.841" class="j">to</text><text x="29.058" y="3.841" class="j">publish?</text><text x="38.076" y="3.841" class="k">›</text><text x="40.08" y="3.841" class="g">../st</text></svg><svg x="3936"><use xlink:href="#a"/><use xlink:href="#b" x="-.004" y="2.146"/><use xlink:href="#3"/></svg><svg x="4059"><use xlink:href="#a"/><use xlink:href="#b" x="-.004" y="2.146"/><use xlink:href="#3"/></svg><svg x="4182"><use xlink:href="#a"/><use xlink:href="#b" x="47.996" y="2.146"/><use xlink:href="#3"/><text y="3.841" class="m">?</text><text x="2.004" y="3.841" class="j">What&apos;s</text><text x="9.018" y="3.841" class="j">the</text><text x="13.026" y="3.841" class="j">storage</text><text x="21.042" y="3.841" class="j">path</text><text x="26.052" y="3.841" class="j">to</text><text x="29.058" y="3.841" class="j">publish?</text><text x="38.076" y="3.841" class="k">›</text><text x="40.08" y="3.841" class="g">../stora</text></svg><svg x="4305"><use xlink:href="#a"/><use xlink:href="#b" x="-.004" y="2.146"/><use xlink:href="#3"/></svg><svg x="4428"><use xlink:href="#a"/><use xlink:href="#b" x="48.996" y="2.146"/><use xlink:href="#3"/><text y="3.841" class="m">?</text><text x="2.004" y="3.841" class="j">What&apos;s</text><text x="9.018" y="3.841" class="j">the</text><text x="13.026" y="3.841" class="j">storage</text><text x="21.042" y="3.841" class="j">path</text><text x="26.052" y="3.841" class="j">to</text><text x="29.058" y="3.841" class="j">publish?</text><text x="38.076" y="3.841" class="k">›</text><text x="40.08" y="3.841" class="g">../storag</text></svg><svg x="4551"><use xlink:href="#a"/><use xlink:href="#b" x="-.004" y="2.146"/><use xlink:href="#3"/></svg><svg x="4674"><use xlink:href="#a"/><use xlink:href="#b" x="49.996" y="2.146"/><use xlink:href="#3"/><text y="3.841" class="m">?</text><text x="2.004" y="3.841" class="j">What&apos;s</text><text x="9.018" y="3.841" class="j">the</text><text x="13.026" y="3.841" class="j">storage</text><text x="21.042" y="3.841" class="j">path</text><text x="26.052" y="3.841" class="j">to</text><text x="29.058" y="3.841" class="j">publish?</text><text x="38.076" y="3.841" class="k">›</text><text x="40.08" y="3.841" class="g">../storage</text></svg><svg x="4797"><use xlink:href="#a"/><use xlink:href="#b" x="-.004" y="2.146"/><use xlink:href="#3"/></svg><svg x="4920"><use xlink:href="#a"/><use xlink:href="#b" x="-.004" y="4.317"/><use xlink:href="#3"/><use xlink:href="#4" y="2.171"/></svg><svg x="5043"><use xlink:href="#a"/><use xlink:href="#b" x="56.996" y="4.317"/><use xlink:href="#3"/><use xlink:href="#4" y="2.171"/><text y="6.012" class="m">?</text><text x="2.004" y="6.012" class="j">Where</text><text x="8.016" y="6.012" class="j">the</text><text x="12.024" y="6.012" class="j">publish</text><text x="20.04" y="6.012" class="j">script</text><text x="27.054" y="6.012" class="j">will</text><text x="32.064" y="6.012" class="j">be</text><text x="35.07" y="6.012" class="j">created</text><text x="43.086" y="6.012" class="k">›</text><text x="45.09" y="6.012" class="k">./publish.sh</text></svg><svg x="5166"><use xlink:href="#a"/><use xlink:href="#b" x="-.004" y="4.317"/><use xlink:href="#3"/><use xlink:href="#4" y="2.171"/></svg><svg x="5289"><use xlink:href="#a"/><use xlink:href="#b" x="-.004" y="6.488"/><use xlink:href="#3"/><use xlink:href="#4" y="2.171"/><use xlink:href="#5" y="4.342"/></svg><svg x="5412"><use xlink:href="#a"/><use xlink:href="#b" x="51.996" y="6.488"/><use xlink:href="#3"/><use xlink:href="#4" y="2.171"/><use xlink:href="#5" y="4.342"/><text y="8.183" class="m">?</text><text x="2.004" y="8.183" class="j">What</text><text x="7.014" y="8.183" class="j">is</text><text x="10.02" y="8.183" class="j">the</text><text x="14.028" y="8.183" class="j">registry</text><text x="23.046" y="8.183" class="j">url</text><text x="27.054" y="8.183" class="j">you</text><text x="31.062" y="8.183" class="j">want</text><text x="36.072" y="8.183" class="j">to</text><text x="39.078" y="8.183" class="j">publish</text><text x="47.094" y="8.183" class="j">to</text><text x="50.1" y="8.183" class="k">›</text></svg><svg x="5535"><use xlink:href="#a"/><use xlink:href="#b" x="52.996" y="6.488"/><use xlink:href="#3"/><use xlink:href="#4" y="2.171"/><use xlink:href="#5" y="4.342"/><text y="8.183" class="m">?</text><text x="2.004" y="8.183" class="j">What</text><text x="7.014" y="8.183" class="j">is</text><text x="10.02" y="8.183" class="j">the</text><text x="14.028" y="8.183" class="j">registry</text><text x="23.046" y="8.183" class="j">url</text><text x="27.054" y="8.183" class="j">you</text><text x="31.062" y="8.183" class="j">want</text><text x="36.072" y="8.183" class="j">to</text><text x="39.078" y="8.183" class="j">publish</text><text x="47.094" y="8.183" class="j">to</text><text x="50.1" y="8.183" class="k">›</text><text x="52.104" y="8.183" class="g">h</text></svg><svg x="5658"><use xlink:href="#a"/><use xlink:href="#b" x="-.004" y="6.488"/><use xlink:href="#3"/><use xlink:href="#4" y="2.171"/><use xlink:href="#5" y="4.342"/></svg><svg x="5781"><use xlink:href="#a"/><use xlink:href="#b" x="53.996" y="6.488"/><use xlink:href="#3"/><use xlink:href="#4" y="2.171"/><use xlink:href="#5" y="4.342"/><text y="8.183" class="m">?</text><text x="2.004" y="8.183" class="j">What</text><text x="7.014" y="8.183" class="j">is</text><text x="10.02" y="8.183" class="j">the</text><text x="14.028" y="8.183" class="j">registry</text><text x="23.046" y="8.183" class="j">url</text><text x="27.054" y="8.183" class="j">you</text><text x="31.062" y="8.183" class="j">want</text><text x="36.072" y="8.183" class="j">to</text><text x="39.078" y="8.183" class="j">publish</text><text x="47.094" y="8.183" class="j">to</text><text x="50.1" y="8.183" class="k">›</text><text x="52.104" y="8.183" class="g">ht</text></svg><svg x="5904"><use xlink:href="#a"/><use xlink:href="#b" x="54.996" y="6.488"/><use xlink:href="#3"/><use xlink:href="#4" y="2.171"/><use xlink:href="#5" y="4.342"/><text y="8.183" class="m">?</text><text x="2.004" y="8.183" class="j">What</text><text x="7.014" y="8.183" class="j">is</text><text x="10.02" y="8.183" class="j">the</text><text x="14.028" y="8.183" class="j">registry</text><text x="23.046" y="8.183" class="j">url</text><text x="27.054" y="8.183" class="j">you</text><text x="31.062" y="8.183" class="j">want</text><text x="36.072" y="8.183" class="j">to</text><text x="39.078" y="8.183" class="j">publish</text><text x="47.094" y="8.183" class="j">to</text><text x="50.1" y="8.183" class="k">›</text><text x="52.104" y="8.183" class="g">htt</text></svg><svg x="6027"><use xlink:href="#a"/><use xlink:href="#b" x="55.996" y="6.488"/><use xlink:href="#3"/><use xlink:href="#4" y="2.171"/><use xlink:href="#5" y="4.342"/><text y="8.183" class="m">?</text><text x="2.004" y="8.183" class="j">What</text><text x="7.014" y="8.183" class="j">is</text><text x="10.02" y="8.183" class="j">the</text><text x="14.028" y="8.183" class="j">registry</text><text x="23.046" y="8.183" class="j">url</text><text x="27.054" y="8.183" class="j">you</text><text x="31.062" y="8.183" class="j">want</text><text x="36.072" y="8.183" class="j">to</text><text x="39.078" y="8.183" class="j">publish</text><text x="47.094" y="8.183" class="j">to</text><text x="50.1" y="8.183" class="k">›</text><text x="52.104" y="8.183" class="g">http</text></svg><svg x="6150"><use xlink:href="#a"/><use xlink:href="#b" x="-.004" y="6.488"/><use xlink:href="#3"/><use xlink:href="#4" y="2.171"/><use xlink:href="#5" y="4.342"/></svg><svg x="6273"><use xlink:href="#a"/><use xlink:href="#b" x="56.996" y="6.488"/><use xlink:href="#3"/><use xlink:href="#4" y="2.171"/><use xlink:href="#5" y="4.342"/><text y="8.183" class="m">?</text><text x="2.004" y="8.183" class="j">What</text><text x="7.014" y="8.183" class="j">is</text><text x="10.02" y="8.183" class="j">the</text><text x="14.028" y="8.183" class="j">registry</text><text x="23.046" y="8.183" class="j">url</text><text x="27.054" y="8.183" class="j">you</text><text x="31.062" y="8.183" class="j">want</text><text x="36.072" y="8.183" class="j">to</text><text x="39.078" y="8.183" class="j">publish</text><text x="47.094" y="8.183" class="j">to</text><text x="50.1" y="8.183" class="k">›</text><text x="52.104" y="8.183" class="g">http:</text></svg><svg x="6396"><use xlink:href="#a"/><use xlink:href="#b" x="57.996" y="6.488"/><use xlink:href="#3"/><use xlink:href="#4" y="2.171"/><use xlink:href="#5" y="4.342"/><text y="8.183" class="m">?</text><text x="2.004" y="8.183" class="j">What</text><text x="7.014" y="8.183" class="j">is</text><text x="10.02" y="8.183" class="j">the</text><text x="14.028" y="8.183" class="j">registry</text><text x="23.046" y="8.183" class="j">url</text><text x="27.054" y="8.183" class="j">you</text><text x="31.062" y="8.183" class="j">want</text><text x="36.072" y="8.183" class="j">to</text><text x="39.078" y="8.183" class="j">publish</text><text x="47.094" y="8.183" class="j">to</text><text x="50.1" y="8.183" class="k">›</text><text x="52.104" y="8.183" class="g">http:/</text></svg><svg x="6519"><use xlink:href="#a"/><use xlink:href="#b" x="-.004" y="6.488"/><use xlink:href="#3"/><use xlink:href="#4" y="2.171"/><use xlink:href="#5" y="4.342"/></svg><svg x="6642"><use xlink:href="#a"/><use xlink:href="#b" x="58.996" y="6.488"/><use xlink:href="#3"/><use xlink:href="#4" y="2.171"/><use xlink:href="#5" y="4.342"/><text y="8.183" class="m">?</text><text x="2.004" y="8.183" class="j">What</text><text x="7.014" y="8.183" class="j">is</text><text x="10.02" y="8.183" class="j">the</text><text x="14.028" y="8.183" class="j">registry</text><text x="23.046" y="8.183" class="j">url</text><text x="27.054" y="8.183" class="j">you</text><text x="31.062" y="8.183" class="j">want</text><text x="36.072" y="8.183" class="j">to</text><text x="39.078" y="8.183" class="j">publish</text><text x="47.094" y="8.183" class="j">to</text><text x="50.1" y="8.183" class="k">›</text><text x="52.104" y="8.183" class="g">http://</text></svg><svg x="6765"><use xlink:href="#a"/><use xlink:href="#b" x="59.996" y="6.488"/><use xlink:href="#3"/><use xlink:href="#4" y="2.171"/><use xlink:href="#5" y="4.342"/><text y="8.183" class="m">?</text><text x="2.004" y="8.183" class="j">What</text><text x="7.014" y="8.183" class="j">is</text><text x="10.02" y="8.183" class="j">the</text><text x="14.028" y="8.183" class="j">registry</text><text x="23.046" y="8.183" class="j">url</text><text x="27.054" y="8.183" class="j">you</text><text x="31.062" y="8.183" class="j">want</text><text x="36.072" y="8.183" class="j">to</text><text x="39.078" y="8.183" class="j">publish</text><text x="47.094" y="8.183" class="j">to</text><text x="50.1" y="8.183" class="k">›</text><text x="52.104" y="8.183" class="g">http://l</text></svg><svg x="6888"><use xlink:href="#a"/><use xlink:href="#b" x="60.996" y="6.488"/><use xlink:href="#3"/><use xlink:href="#4" y="2.171"/><use xlink:href="#5" y="4.342"/><text y="8.183" class="m">?</text><text x="2.004" y="8.183" class="j">What</text><text x="7.014" y="8.183" class="j">is</text><text x="10.02" y="8.183" class="j">the</text><text x="14.028" y="8.183" class="j">registry</text><text x="23.046" y="8.183" class="j">url</text><text x="27.054" y="8.183" class="j">you</text><text x="31.062" y="8.183" class="j">want</text><text x="36.072" y="8.183" class="j">to</text><text x="39.078" y="8.183" class="j">publish</text><text x="47.094" y="8.183" class="j">to</text><text x="50.1" y="8.183" class="k">›</text><text x="52.104" y="8.183" class="g">http://lo</text></svg><svg x="7011"><use xlink:href="#a"/><use xlink:href="#b" x="-.004" y="6.488"/><use xlink:href="#3"/><use xlink:href="#4" y="2.171"/><use xlink:href="#5" y="4.342"/></svg><svg x="7134"><use xlink:href="#a"/><use xlink:href="#b" x="61.996" y="6.488"/><use xlink:href="#3"/><use xlink:href="#4" y="2.171"/><use xlink:href="#5" y="4.342"/><text y="8.183" class="m">?</text><text x="2.004" y="8.183" class="j">What</text><text x="7.014" y="8.183" class="j">is</text><text x="10.02" y="8.183" class="j">the</text><text x="14.028" y="8.183" class="j">registry</text><text x="23.046" y="8.183" class="j">url</text><text x="27.054" y="8.183" class="j">you</text><text x="31.062" y="8.183" class="j">want</text><text x="36.072" y="8.183" class="j">to</text><text x="39.078" y="8.183" class="j">publish</text><text x="47.094" y="8.183" class="j">to</text><text x="50.1" y="8.183" class="k">›</text><text x="52.104" y="8.183" class="g">http://loc</text></svg><svg x="7257"><use xlink:href="#a"/><use xlink:href="#b" x="-.004" y="6.488"/><use xlink:href="#3"/><use xlink:href="#4" y="2.171"/><use xlink:href="#5" y="4.342"/></svg><svg x="7380"><use xlink:href="#a"/><use xlink:href="#b" x="62.996" y="6.488"/><use xlink:href="#3"/><use xlink:href="#4" y="2.171"/><use xlink:href="#5" y="4.342"/><text y="8.183" class="m">?</text><text x="2.004" y="8.183" class="j">What</text><text x="7.014" y="8.183" class="j">is</text><text x="10.02" y="8.183" class="j">the</text><text x="14.028" y="8.183" class="j">registry</text><text x="23.046" y="8.183" class="j">url</text><text x="27.054" y="8.183" class="j">you</text><text x="31.062" y="8.183" class="j">want</text><text x="36.072" y="8.183" class="j">to</text><text x="39.078" y="8.183" class="j">publish</text><text x="47.094" y="8.183" class="j">to</text><text x="50.1" y="8.183" class="k">›</text><text x="52.104" y="8.183" class="g">http://loca</text></svg><svg x="7503"><use xlink:href="#a"/><use xlink:href="#b" x="-.004" y="6.488"/><use xlink:href="#3"/><use xlink:href="#4" y="2.171"/><use xlink:href="#5" y="4.342"/></svg><svg x="7626"><use xlink:href="#a"/><use xlink:href="#b" x="63.996" y="6.488"/><use xlink:href="#3"/><use xlink:href="#4" y="2.171"/><use xlink:href="#5" y="4.342"/><text y="8.183" class="m">?</text><text x="2.004" y="8.183" class="j">What</text><text x="7.014" y="8.183" class="j">is</text><text x="10.02" y="8.183" class="j">the</text><text x="14.028" y="8.183" class="j">registry</text><text x="23.046" y="8.183" class="j">url</text><text x="27.054" y="8.183" class="j">you</text><text x="31.062" y="8.183" class="j">want</text><text x="36.072" y="8.183" class="j">to</text><text x="39.078" y="8.183" class="j">publish</text><text x="47.094" y="8.183" class="j">to</text><text x="50.1" y="8.183" class="k">›</text><text x="52.104" y="8.183" class="g">http://local</text></svg><svg x="7749"><use xlink:href="#a"/><use xlink:href="#b" x="-.004" y="6.488"/><use xlink:href="#3"/><use xlink:href="#4" y="2.171"/><use xlink:href="#5" y="4.342"/></svg><svg x="7872"><use xlink:href="#a"/><use xlink:href="#b" x="64.996" y="6.488"/><use xlink:href="#3"/><use xlink:href="#4" y="2.171"/><use xlink:href="#5" y="4.342"/><text y="8.183" class="m">?</text><text x="2.004" y="8.183" class="j">What</text><text x="7.014" y="8.183" class="j">is</text><text x="10.02" y="8.183" class="j">the</text><text x="14.028" y="8.183" class="j">registry</text><text x="23.046" y="8.183" class="j">url</text><text x="27.054" y="8.183" class="j">you</text><text x="31.062" y="8.183" class="j">want</text><text x="36.072" y="8.183" class="j">to</text><text x="39.078" y="8.183" class="j">publish</text><text x="47.094" y="8.183" class="j">to</text><text x="50.1" y="8.183" class="k">›</text><text x="52.104" y="8.183" class="g">http://localh</text></svg><svg x="7995"><use xlink:href="#a"/><use xlink:href="#b" x="-.004" y="6.488"/><use xlink:href="#3"/><use xlink:href="#4" y="2.171"/><use xlink:href="#5" y="4.342"/></svg><svg x="8118"><use xlink:href="#a"/><use xlink:href="#b" x="65.996" y="6.488"/><use xlink:href="#3"/><use xlink:href="#4" y="2.171"/><use xlink:href="#5" y="4.342"/><text y="8.183" class="m">?</text><text x="2.004" y="8.183" class="j">What</text><text x="7.014" y="8.183" class="j">is</text><text x="10.02" y="8.183" class="j">the</text><text x="14.028" y="8.183" class="j">registry</text><text x="23.046" y="8.183" class="j">url</text><text x="27.054" y="8.183" class="j">you</text><text x="31.062" y="8.183" class="j">want</text><text x="36.072" y="8.183" class="j">to</text><text x="39.078" y="8.183" class="j">publish</text><text x="47.094" y="8.183" class="j">to</text><text x="50.1" y="8.183" class="k">›</text><text x="52.104" y="8.183" class="g">http://localho</text></svg><svg x="8241"><use xlink:href="#a"/><use xlink:href="#b" x="-.004" y="6.488"/><use xlink:href="#3"/><use xlink:href="#4" y="2.171"/><use xlink:href="#5" y="4.342"/></svg><svg x="8364"><use xlink:href="#a"/><use xlink:href="#b" x="66.996" y="6.488"/><use xlink:href="#3"/><use xlink:href="#4" y="2.171"/><use xlink:href="#5" y="4.342"/><text y="8.183" class="m">?</text><text x="2.004" y="8.183" class="j">What</text><text x="7.014" y="8.183" class="j">is</text><text x="10.02" y="8.183" class="j">the</text><text x="14.028" y="8.183" class="j">registry</text><text x="23.046" y="8.183" class="j">url</text><text x="27.054" y="8.183" class="j">you</text><text x="31.062" y="8.183" class="j">want</text><text x="36.072" y="8.183" class="j">to</text><text x="39.078" y="8.183" class="j">publish</text><text x="47.094" y="8.183" class="j">to</text><text x="50.1" y="8.183" class="k">›</text><text x="52.104" y="8.183" class="g">http://localhos</text></svg><svg x="8487"><use xlink:href="#a"/><use xlink:href="#b" x="-.004" y="6.488"/><use xlink:href="#3"/><use xlink:href="#4" y="2.171"/><use xlink:href="#5" y="4.342"/></svg><svg x="8610"><use xlink:href="#a"/><use xlink:href="#b" x="67.996" y="6.488"/><use xlink:href="#3"/><use xlink:href="#4" y="2.171"/><use xlink:href="#5" y="4.342"/><text y="8.183" class="m">?</text><text x="2.004" y="8.183" class="j">What</text><text x="7.014" y="8.183" class="j">is</text><text x="10.02" y="8.183" class="j">the</text><text x="14.028" y="8.183" class="j">registry</text><text x="23.046" y="8.183" class="j">url</text><text x="27.054" y="8.183" class="j">you</text><text x="31.062" y="8.183" class="j">want</text><text x="36.072" y="8.183" class="j">to</text><text x="39.078" y="8.183" class="j">publish</text><text x="47.094" y="8.183" class="j">to</text><text x="50.1" y="8.183" class="k">›</text><text x="52.104" y="8.183" class="g">http://localhost</text></svg><svg x="8733"><use xlink:href="#a"/><use xlink:href="#b" x="-.004" y="6.488"/><use xlink:href="#3"/><use xlink:href="#4" y="2.171"/><use xlink:href="#5" y="4.342"/></svg><svg x="8856"><use xlink:href="#a"/><use xlink:href="#b" x="68.996" y="6.488"/><use xlink:href="#3"/><use xlink:href="#4" y="2.171"/><use xlink:href="#5" y="4.342"/><text y="8.183" class="m">?</text><text x="2.004" y="8.183" class="j">What</text><text x="7.014" y="8.183" class="j">is</text><text x="10.02" y="8.183" class="j">the</text><text x="14.028" y="8.183" class="j">registry</text><text x="23.046" y="8.183" class="j">url</text><text x="27.054" y="8.183" class="j">you</text><text x="31.062" y="8.183" class="j">want</text><text x="36.072" y="8.183" class="j">to</text><text x="39.078" y="8.183" class="j">publish</text><text x="47.094" y="8.183" class="j">to</text><text x="50.1" y="8.183" class="k">›</text><text x="52.104" y="8.183" class="g">http://localhost:</text></svg><svg x="8979"><use xlink:href="#a"/><use xlink:href="#b" x="-.004" y="6.488"/><use xlink:href="#3"/><use xlink:href="#4" y="2.171"/><use xlink:href="#5" y="4.342"/></svg><svg x="9102"><use xlink:href="#a"/><use xlink:href="#b" x="69.996" y="6.488"/><use xlink:href="#3"/><use xlink:href="#4" y="2.171"/><use xlink:href="#5" y="4.342"/><text y="8.183" class="m">?</text><text x="2.004" y="8.183" class="j">What</text><text x="7.014" y="8.183" class="j">is</text><text x="10.02" y="8.183" class="j">the</text><text x="14.028" y="8.183" class="j">registry</text><text x="23.046" y="8.183" class="j">url</text><text x="27.054" y="8.183" class="j">you</text><text x="31.062" y="8.183" class="j">want</text><text x="36.072" y="8.183" class="j">to</text><text x="39.078" y="8.183" class="j">publish</text><text x="47.094" y="8.183" class="j">to</text><text x="50.1" y="8.183" class="k">›</text><text x="52.104" y="8.183" class="g">http://localhost:4</text></svg><svg x="9225"><use xlink:href="#a"/><use xlink:href="#b" x="70.996" y="6.488"/><use xlink:href="#3"/><use xlink:href="#4" y="2.171"/><use xlink:href="#5" y="4.342"/><text y="8.183" class="m">?</text><text x="2.004" y="8.183" class="j">What</text><text x="7.014" y="8.183" class="j">is</text><text x="10.02" y="8.183" class="j">the</text><text x="14.028" y="8.183" class="j">registry</text><text x="23.046" y="8.183" class="j">url</text><text x="27.054" y="8.183" class="j">you</text><text x="31.062" y="8.183" class="j">want</text><text x="36.072" y="8.183" class="j">to</text><text x="39.078" y="8.183" class="j">publish</text><text x="47.094" y="8.183" class="j">to</text><text x="50.1" y="8.183" class="k">›</text><text x="52.104" y="8.183" class="g">http://localhost:48</text></svg><svg x="9348"><use xlink:href="#a"/><use xlink:href="#b" x="-.004" y="6.488"/><use xlink:href="#3"/><use xlink:href="#4" y="2.171"/><use xlink:href="#5" y="4.342"/></svg><svg x="9471"><use xlink:href="#a"/><use xlink:href="#b" x="71.996" y="6.488"/><use xlink:href="#3"/><use xlink:href="#4" y="2.171"/><use xlink:href="#5" y="4.342"/><text y="8.183" class="m">?</text><text x="2.004" y="8.183" class="j">What</text><text x="7.014" y="8.183" class="j">is</text><text x="10.02" y="8.183" class="j">the</text><text x="14.028" y="8.183" class="j">registry</text><text x="23.046" y="8.183" class="j">url</text><text x="27.054" y="8.183" class="j">you</text><text x="31.062" y="8.183" class="j">want</text><text x="36.072" y="8.183" class="j">to</text><text x="39.078" y="8.183" class="j">publish</text><text x="47.094" y="8.183" class="j">to</text><text x="50.1" y="8.183" class="k">›</text><text x="52.104" y="8.183" class="g">http://localhost:487</text></svg><svg x="9594"><use xlink:href="#a"/><use xlink:href="#b" x="-.004" y="6.488"/><use xlink:href="#3"/><use xlink:href="#4" y="2.171"/><use xlink:href="#5" y="4.342"/></svg><svg x="9717"><use xlink:href="#a"/><use xlink:href="#b" x="72.996" y="6.488"/><use xlink:href="#3"/><use xlink:href="#4" y="2.171"/><use xlink:href="#5" y="4.342"/><text y="8.183" class="m">?</text><text x="2.004" y="8.183" class="j">What</text><text x="7.014" y="8.183" class="j">is</text><text x="10.02" y="8.183" class="j">the</text><text x="14.028" y="8.183" class="j">registry</text><text x="23.046" y="8.183" class="j">url</text><text x="27.054" y="8.183" class="j">you</text><text x="31.062" y="8.183" class="j">want</text><text x="36.072" y="8.183" class="j">to</text><text x="39.078" y="8.183" class="j">publish</text><text x="47.094" y="8.183" class="j">to</text><text x="50.1" y="8.183" class="k">›</text><text x="52.104" y="8.183" class="g">http://localhost:4873</text></svg><svg x="9840"><use xlink:href="#a"/><use xlink:href="#b" x="-.004" y="6.488"/><use xlink:href="#3"/><use xlink:href="#4" y="2.171"/><use xlink:href="#5" y="4.342"/></svg><svg x="9963"><use xlink:href="#a"/><use xlink:href="#b" x="-.004" y="8.659"/><use xlink:href="#3"/><use xlink:href="#4" y="2.171"/><use xlink:href="#5" y="4.342"/><use xlink:href="#6" y="6.513"/></svg><svg x="10086"><use xlink:href="#a"/><use xlink:href="#3"/><use xlink:href="#4" y="2.171"/><use xlink:href="#5" y="4.342"/><use xlink:href="#6" y="6.513"/></svg><svg x="10209"><use xlink:href="#a"/><use xlink:href="#3"/><use xlink:href="#4" y="2.171"/><use xlink:href="#5" y="4.342"/><use xlink:href="#6" y="6.513"/><text y="10.354" class="m">?</text><text x="2.004" y="10.354" class="j">Should</text><text x="9.018" y="10.354" class="j">publish</text><text x="17.034" y="10.354" class="j">only</text><text x="22.044" y="10.354" class="j">new</text><text x="26.052" y="10.354" class="j">packages</text><text x="35.07" y="10.354" class="k">›</text><text x="37.074" y="10.354" class="k">(y/N)</text></svg><svg x="10332"><use xlink:href="#a"/><use xlink:href="#3"/><use xlink:href="#4" y="2.171"/><use xlink:href="#5" y="4.342"/><use xlink:href="#6" y="6.513"/></svg><svg x="10455"><use xlink:href="#a"/><use xlink:href="#b" x="-.004" y="10.83"/><use xlink:href="#3"/><use xlink:href="#4" y="2.171"/><use xlink:href="#5" y="4.342"/><use xlink:href="#6" y="6.513"/><use xlink:href="#7" y="8.684"/></svg><svg x="10578"><use xlink:href="#a"/><use xlink:href="#b" x="-.004" y="13.001"/><use xlink:href="#3"/><use xlink:href="#4" y="2.171"/><use xlink:href="#5" y="4.342"/><use xlink:href="#6" y="6.513"/><use xlink:href="#7" y="8.684"/><use xlink:href="#8" y="10.855"/></svg><svg x="10701"><use xlink:href="#a"/><use xlink:href="#b" x="-.004" y="15.172"/><use xlink:href="#3"/><use xlink:href="#4" y="2.171"/><use xlink:href="#5" y="4.342"/><use xlink:href="#6" y="6.513"/><use xlink:href="#7" y="8.684"/><use xlink:href="#8" y="10.855"/><use xlink:href="#9" y="13.026"/></svg><svg x="10824"><use xlink:href="#a"/><use xlink:href="#b" x="-.004" y="17.343"/><use xlink:href="#3"/><use xlink:href="#4" y="2.171"/><use xlink:href="#5" y="4.342"/><use xlink:href="#6" y="6.513"/><use xlink:href="#7" y="8.684"/><use xlink:href="#8" y="10.855"/><use xlink:href="#9" y="13.026"/><use xlink:href="#10" y="15.197"/></svg><svg x="10947"><use xlink:href="#a"/><use xlink:href="#b" x="-.004" y="19.514"/><use xlink:href="#3"/><use xlink:href="#4" y="2.171"/><use xlink:href="#5" y="4.342"/><use xlink:href="#6" y="6.513"/><use xlink:href="#7" y="8.684"/><use xlink:href="#8" y="10.855"/><use xlink:href="#9" y="13.026"/><use xlink:href="#10" y="15.197"/><use xlink:href="#11" y="17.368"/></svg><svg x="11070"><use xlink:href="#a"/><use xlink:href="#b" x="-.004" y="21.685"/><use xlink:href="#3"/><use xlink:href="#4" y="2.171"/><use xlink:href="#5" y="4.342"/><use xlink:href="#6" y="6.513"/><use xlink:href="#7" y="8.684"/><use xlink:href="#8" y="10.855"/><use xlink:href="#9" y="13.026"/><use xlink:href="#10" y="15.197"/><use xlink:href="#11" y="17.368"/><use xlink:href="#12" y="19.539"/></svg><svg x="11193"><use xlink:href="#a"/><use xlink:href="#b" x="-.004" y="23.856"/><use xlink:href="#3"/><use xlink:href="#4" y="2.171"/><use xlink:href="#5" y="4.342"/><use xlink:href="#6" y="6.513"/><use xlink:href="#7" y="8.684"/><use xlink:href="#8" y="10.855"/><use xlink:href="#9" y="13.026"/><use xlink:href="#10" y="15.197"/><use xlink:href="#11" y="17.368"/><use xlink:href="#12" y="19.539"/><use xlink:href="#13" y="21.71"/></svg><svg x="11316"><use xlink:href="#a"/><use xlink:href="#b" x="-.004" y="26.027"/><use xlink:href="#3"/><use xlink:href="#4" y="2.171"/><use xlink:href="#5" y="4.342"/><use xlink:href="#6" y="6.513"/><use xlink:href="#7" y="8.684"/><use xlink:href="#8" y="10.855"/><use xlink:href="#9" y="13.026"/><use xlink:href="#10" y="15.197"/><use xlink:href="#11" y="17.368"/><use xlink:href="#12" y="19.539"/><use xlink:href="#13" y="21.71"/><use xlink:href="#14" y="23.881"/></svg><svg x="11439"><use xlink:href="#a"/><use xlink:href="#b" x="-.004" y="28.198"/><use xlink:href="#3"/><use xlink:href="#4" y="2.171"/><use xlink:href="#5" y="4.342"/><use xlink:href="#6" y="6.513"/><use xlink:href="#7" y="8.684"/><use xlink:href="#8" y="10.855"/><use xlink:href="#9" y="13.026"/><use xlink:href="#10" y="15.197"/><use xlink:href="#11" y="17.368"/><use xlink:href="#12" y="19.539"/><use xlink:href="#13" y="21.71"/><use xlink:href="#14" y="23.881"/><use xlink:href="#15" y="26.052"/></svg><svg x="11562"><use xlink:href="#a"/><use xlink:href="#b" x="-.004" y="30.369"/><use xlink:href="#3"/><use xlink:href="#4" y="2.171"/><use xlink:href="#5" y="4.342"/><use xlink:href="#6" y="6.513"/><use xlink:href="#7" y="8.684"/><use xlink:href="#8" y="10.855"/><use xlink:href="#9" y="13.026"/><use xlink:href="#10" y="15.197"/><use xlink:href="#11" y="17.368"/><use xlink:href="#12" y="19.539"/><use xlink:href="#13" y="21.71"/><use xlink:href="#14" y="23.881"/><use xlink:href="#15" y="26.052"/><use xlink:href="#16" y="28.223"/></svg><svg x="11685"><use xlink:href="#a"/><use xlink:href="#b" x="-.004" y="32.54"/><use xlink:href="#3"/><use xlink:href="#4" y="2.171"/><use xlink:href="#5" y="4.342"/><use xlink:href="#6" y="6.513"/><use xlink:href="#7" y="8.684"/><use xlink:href="#8" y="10.855"/><use xlink:href="#9" y="13.026"/><use xlink:href="#10" y="15.197"/><use xlink:href="#11" y="17.368"/><use xlink:href="#12" y="19.539"/><use xlink:href="#13" y="21.71"/><use xlink:href="#14" y="23.881"/><use xlink:href="#15" y="26.052"/><use xlink:href="#16" y="28.223"/><use xlink:href="#17" y="30.394"/></svg><svg x="11808"><use xlink:href="#a"/><use xlink:href="#b" x="-.004" y="34.711"/><use xlink:href="#3"/><use xlink:href="#4" y="2.171"/><use xlink:href="#5" y="4.342"/><use xlink:href="#6" y="6.513"/><use xlink:href="#7" y="8.684"/><use xlink:href="#8" y="10.855"/><use xlink:href="#9" y="13.026"/><use xlink:href="#10" y="15.197"/><use xlink:href="#11" y="17.368"/><use xlink:href="#12" y="19.539"/><use xlink:href="#13" y="21.71"/><use xlink:href="#14" y="23.881"/><use xlink:href="#15" y="26.052"/><use xlink:href="#16" y="28.223"/><use xlink:href="#17" y="30.394"/><use xlink:href="#18" y="32.565"/></svg><svg x="11931"><use xlink:href="#a"/><use xlink:href="#b" x="43.996" y="34.711"/><use xlink:href="#3"/><use xlink:href="#4" y="2.171"/><use xlink:href="#5" y="4.342"/><use xlink:href="#6" y="6.513"/><use xlink:href="#7" y="8.684"/><use xlink:href="#8" y="10.855"/><use xlink:href="#9" y="13.026"/><use xlink:href="#10" y="15.197"/><use xlink:href="#11" y="17.368"/><use xlink:href="#12" y="19.539"/><use xlink:href="#13" y="21.71"/><use xlink:href="#14" y="23.881"/><use xlink:href="#15" y="26.052"/><use xlink:href="#16" y="28.223"/><use xlink:href="#17" y="30.394"/><use xlink:href="#18" y="32.565"/><use xlink:href="#1" y="34.736"/></svg><svg x="12054"><use xlink:href="#a"/><use xlink:href="#b" x="43.996" y="34.711"/><use xlink:href="#3"/><use xlink:href="#4" y="2.171"/><use xlink:href="#5" y="4.342"/><use xlink:href="#6" y="6.513"/><use xlink:href="#7" y="8.684"/><use xlink:href="#8" y="10.855"/><use xlink:href="#9" y="13.026"/><use xlink:href="#10" y="15.197"/><use xlink:href="#11" y="17.368"/><use xlink:href="#12" y="19.539"/><use xlink:href="#13" y="21.71"/><use xlink:href="#14" y="23.881"/><use xlink:href="#15" y="26.052"/><use xlink:href="#16" y="28.223"/><use xlink:href="#17" y="30.394"/><use xlink:href="#18" y="32.565"/><use xlink:href="#1" y="34.736"/></svg></svg></g></g></svg></svg>